<svg version="1.2" baseProfile="tiny-ps" xmlns="http://www.w3.org/2000/svg" viewBox="0 0 20 20" width="20" height="20">
	<title>Chat Notification</title>
	<defs>
		<clipPath clipPathUnits="userSpaceOnUse" id="cp1">
			<path d="M-1 -2L23 -2L23 22L-1 22L-1 -2Z" />
		</clipPath>
	</defs>
	<style>
		tspan { white-space:pre }
		.shp0 { fill: none;stroke: #333333;stroke-linecap:round;stroke-width: 1.2 } 
		.shp1 { fill: #f4694c;stroke: #ffffff } 
	</style>
	<g id="Chat Notification">
		<g id="Notification">
			<g id="Notification" clip-path="url(#cp1)">
				<g id="Group">
					<path id="Vector" class="shp0" d="M3.42 15.38L3.42 7.47C3.42 3.68 6.49 0.6 10.29 0.6C14.08 0.6 17.16 3.67 17.16 7.47L17.16 15.38L17.15 15.38L3.42 15.38Z" />
					<path id="Vector" class="shp0" d="M1.22 15.38L19.35 15.38" />
					<path id="Vector" class="shp0" d="M12.3 17.37C12.3 18.48 11.4 19.39 10.28 19.39C9.16 19.39 8.26 18.49 8.26 17.37" />
				</g>
				<path id="Ellipse 174" class="shp1" d="M17 7C15.34 7 14 5.66 14 4C14 2.34 15.34 1 17 1C18.66 1 20 2.34 20 4C20 5.66 18.66 7 17 7Z" />
			</g>
		</g>
	</g>
</svg>