<svg version="1.2" baseProfile="tiny-ps" xmlns="http://www.w3.org/2000/svg" viewBox="0 0 20 20" width="20" height="20">
	<title>hotel dashboard</title>
	<defs>
		<clipPath clipPathUnits="userSpaceOnUse" id="cp1">
			<path d="M-2 -2L22 -2L22 22L-2 22L-2 -2Z" />
		</clipPath>
	</defs>
	<style>
		tspan { white-space:pre }
		.shp0 { fill: none;stroke: #999999;stroke-linecap:round } 
	</style>
	<g id="hotel dashboard">
		<g id="Group 1">
			<g id="Left">
				<g id="Dashboard">
					<g id="dashboard 1 copy">
						<g id="dashboard 1 copy" clip-path="url(#cp1)">
							<g id="Group 1805">
								<path id="Vector" class="shp0" d="M6.11 1C7.7 1 9 2.3 9 3.89L9 6.11C9 7.7 7.7 9 6.11 9L3.89 9C2.3 9 1 7.7 1 6.11L1 3.89C1 2.3 2.3 1 3.89 1L6.11 1Z" />
								<path id="Vector" class="shp0" d="M6.11 11C7.7 11 9 12.3 9 13.89L9 16.11C9 17.7 7.7 19 6.11 19L3.89 19C2.3 19 1 17.7 1 16.11L1 13.89C1 12.3 2.3 11 3.89 11L6.11 11Z" />
								<path id="Vector" class="shp0" d="M16.11 1C17.7 1 19 2.3 19 3.89L19 6.11C19 7.7 17.7 9 16.11 9L13.89 9C12.3 9 11 7.7 11 6.11L11 3.89C11 2.3 12.3 1 13.89 1L16.11 1Z" />
								<path id="Vector" class="shp0" d="M16.11 11C17.7 11 19 12.3 19 13.89L19 16.11C19 17.7 17.7 19 16.11 19L13.89 19C12.3 19 11 17.7 11 16.11L11 13.89C11 12.3 12.3 11 13.89 11L16.11 11Z" />
							</g>
						</g>
					</g>
				</g>
			</g>
		</g>
	</g>
</svg>